<svg version="1.1" id="Layer_1" xmlns="http://www.w3.org/2000/svg" xmlns:xlink="http://www.w3.org/1999/xlink" x="0px" y="0px"
	 width="100%" viewBox="0 0 784 784" enable-background="new 0 0 784 784" xml:space="preserve">
<path fill="#000000" opacity="1.000000" stroke="none" 
	d="
M382.957581,622.039978 
	C382.191406,599.740417 381.506439,577.776978 380.611542,555.822083 
	C380.212067,546.021484 379.340790,536.240845 378.796387,526.444946 
	C378.662720,524.039612 377.451172,523.320923 375.311096,523.213806 
	C362.953766,522.595337 350.644287,521.952026 338.212250,522.219788 
	C331.049377,522.374023 323.469788,523.542236 316.185150,521.581604 
	C313.728180,520.920349 313.144257,523.199646 312.480652,524.821045 
	C306.680023,538.993896 300.736847,553.115601 295.837494,567.635803 
	C289.022156,587.834290 281.119781,607.622437 273.441193,627.496155 
	C272.153412,630.829224 269.946594,632.200928 266.245331,632.426514 
	C258.788391,632.880737 251.293808,633.249023 243.939240,634.825623 
	C240.649750,635.530823 237.662781,634.211182 234.881790,632.764404 
	C232.758133,631.659607 232.744553,629.640015 233.786087,627.568359 
	C245.409256,604.449097 253.262024,579.824158 262.420410,555.721924 
	C265.966522,546.389465 269.193329,536.934937 272.797668,527.625854 
	C274.080444,524.312805 272.945221,522.517639 269.878723,522.470459 
	C264.005463,522.380127 258.100830,520.040161 252.236862,522.534485 
	C250.897842,523.104065 249.555801,522.622559 248.343094,522.159119 
	C244.932083,520.855652 241.428757,521.083008 237.974777,521.535461 
	C231.091843,522.437134 230.690750,522.255554 229.847336,515.349609 
	C229.134979,509.516724 230.545303,503.739838 230.544800,497.963348 
	C230.543777,486.485229 229.839798,475.007690 229.457779,463.528870 
	C229.231339,456.724823 229.051666,449.919128 228.873962,443.113586 
	C228.113281,413.982025 227.622284,384.840393 226.523972,355.721619 
	C225.632751,332.093536 225.093552,308.464203 224.498428,284.830475 
	C223.987183,264.528595 223.051208,244.231979 222.539688,223.922775 
	C222.432526,219.668091 223.571609,218.554214 227.716690,218.572067 
	C260.545868,218.713577 293.376587,218.547852 326.205139,218.750977 
	C331.201385,218.781891 333.024628,217.467514 332.764954,212.315750 
	C332.371185,204.503036 332.810394,196.651794 332.595337,188.825180 
	C332.489990,184.992844 333.674957,183.427490 337.698212,183.585526 
	C344.353760,183.846954 351.027344,183.666153 357.693207,183.643539 
	C363.466248,183.623947 364.295715,182.963837 363.532593,177.356216 
	C361.753479,164.283524 363.560364,151.068054 361.732452,138.006104 
	C361.154816,133.878571 361.995697,132.046875 367.302948,132.211517 
	C374.957489,132.448975 382.797943,132.940613 390.877472,130.586899 
	C391.383636,139.474869 391.917938,147.881638 392.324890,156.294556 
	C392.686707,163.773392 391.974884,171.266327 392.833099,178.757629 
	C393.261963,182.501282 394.691986,183.857544 398.527374,183.730911 
	C406.517639,183.467117 414.525909,183.788452 422.520813,183.607208 
	C426.225067,183.523239 427.486389,184.917938 427.402069,188.569916 
	C427.213593,196.731308 427.570007,204.908600 427.260406,213.062561 
	C427.093536,217.457657 428.501587,218.765244 432.914337,218.744095 
	C466.743256,218.581833 500.573303,218.655441 534.403015,218.664230 
	C541.664490,218.666122 541.287231,218.743927 542.458862,225.874557 
	C544.171387,236.297607 543.297180,246.794342 543.971558,257.246429 
	C545.567871,281.990326 546.255615,306.791931 547.406494,331.565765 
	C548.673279,358.833252 550.034607,386.096436 551.378235,413.360291 
	C552.697510,440.128601 553.905457,466.903809 555.490662,493.656525 
	C555.845032,499.637817 556.186340,505.602997 556.340637,511.593231 
	C556.448059,515.763123 554.565674,517.207092 550.661865,517.253357 
	C539.007141,517.391418 527.353760,517.661011 515.700684,517.914246 
	C513.738953,517.956909 511.679138,517.602356 509.874237,518.937500 
	C508.946991,521.074097 510.348572,522.770569 511.055328,524.556885 
	C520.493958,548.412842 531.022583,571.791321 542.036682,594.953613 
	C545.864319,603.002869 547.156982,611.745178 549.090942,620.302734 
	C549.705872,623.023743 549.274109,626.225708 545.576721,626.167480 
	C535.439575,626.007874 525.291565,626.751282 515.154907,625.661072 
	C511.876801,625.308411 510.790894,623.672302 509.964722,620.821045 
	C501.508728,591.638062 490.185333,563.557800 476.976898,536.228394 
	C470.588623,523.010376 470.461212,523.529785 455.698334,522.927124 
	C442.725800,522.397644 429.736664,522.767090 416.793793,521.862915 
	C413.490234,521.632080 413.019836,523.099243 413.052673,525.525452 
	C413.212799,537.353394 413.351440,549.182434 413.633911,561.007812 
	C414.143005,582.321594 414.714600,603.634033 415.350800,624.944336 
	C415.449615,628.254150 414.039825,629.359314 410.909851,629.283142 
	C403.442139,629.101318 396.011932,629.018188 388.517303,629.879578 
	C384.222748,630.373230 383.212830,626.113525 382.957581,622.039978 
M374.485107,254.199890 
	C361.829742,254.384323 349.204620,254.164917 336.552155,253.316986 
	C312.796112,251.724899 288.970703,252.824524 265.180420,252.262222 
	C258.350983,252.100815 258.207794,252.356689 258.283600,259.265350 
	C258.798828,306.233032 257.498352,353.206512 259.090790,400.175140 
	C259.936859,425.130737 260.016296,450.114929 260.198242,475.087982 
	C260.230621,479.529694 261.705658,480.934631 266.019379,480.740112 
	C272.504639,480.447632 279.021118,480.457520 285.507660,480.731720 
	C289.329895,480.893311 291.258514,479.381805 292.517212,475.906036 
	C296.824188,464.012817 301.451050,452.235168 305.738342,440.335052 
	C318.031158,406.214081 328.918396,371.592926 342.561707,337.949219 
	C348.001556,324.534790 352.583191,310.774445 357.820862,297.274536 
	C359.184479,293.759888 360.665527,289.523651 365.507416,289.399750 
	C379.643677,289.038055 393.786316,288.933105 407.924408,288.631104 
	C410.745209,288.570892 412.425568,289.315857 413.552582,292.233246 
	C424.949188,321.734406 439.087280,350.058563 450.882050,379.408569 
	C463.968994,411.973999 478.013245,444.154083 491.519714,476.552399 
	C492.819397,479.669983 494.572693,481.003479 497.889984,480.631073 
	C501.356384,480.241943 504.896332,479.574493 508.316162,479.914215 
	C514.017090,480.480530 514.763794,477.786835 514.746948,472.924591 
	C514.597595,429.769745 514.668274,386.614166 514.667358,343.458801 
	C514.667297,341.793610 514.689819,340.120819 514.549927,338.464417 
	C512.410828,313.141693 510.706329,287.792694 509.919281,262.388306 
	C509.694977,255.147980 508.566437,254.188950 501.291199,254.897263 
	C498.980927,255.122192 496.600311,255.220108 494.307892,254.931519 
	C483.528076,253.574554 472.714539,254.809189 461.914642,254.524399 
	C433.119080,253.765076 404.291473,254.218826 374.485107,254.199890 
M440.882446,442.518707 
	C428.005585,409.375336 414.044922,376.653687 402.126038,342.957886 
	C401.393127,346.469269 401.239746,349.882202 401.417877,353.277740 
	C402.619690,376.187195 403.987579,399.075256 404.438599,422.033356 
	C404.796692,440.263580 407.601807,458.435394 406.308380,476.743896 
	C406.050659,480.391602 408.239624,480.704041 411.065826,480.691040 
	C424.888000,480.627502 438.710663,480.666595 452.533051,480.634674 
	C453.792816,480.631744 455.256744,481.056427 456.370850,479.142334 
	C451.401520,467.339142 446.318787,455.266541 440.882446,442.518707 
M339.524231,480.661957 
	C350.352478,480.658691 361.180786,480.633881 372.008911,480.667786 
	C374.600342,480.675903 377.151398,480.266754 376.569519,477.018188 
	C374.968475,468.079376 376.301392,459.065674 375.531403,450.132263 
	C374.461212,437.715515 373.431122,425.311554 373.798737,412.826660 
	C373.915222,408.872101 374.294312,404.964203 373.953278,400.930237 
	C373.270660,392.854980 371.809265,384.788208 373.006439,376.582336 
	C373.995880,369.800385 371.415894,363.011871 372.723755,356.037415 
	C355.198242,396.494171 342.453644,438.494568 326.638184,479.881683 
	C331.293793,481.114349 334.949005,480.472382 339.524231,480.661957 
z"/>
</svg>